<mxfile host="app.diagrams.net" agent="Mozilla/5.0 (Windows NT 10.0; Win64; x64) AppleWebKit/537.36 (KHTML, like Gecko) Chrome/133.0.0.0 Safari/537.36 OPR/118.0.0.0" version="27.0.4">
  <diagram id="C5RBs43oDa-KdzZeNtuy" name="Page-1">
    <mxGraphModel dx="1771" dy="820" grid="1" gridSize="10" guides="1" tooltips="1" connect="1" arrows="1" fold="1" page="1" pageScale="1" pageWidth="827" pageHeight="1169" math="0" shadow="0">
      <root>
        <mxCell id="WIyWlLk6GJQsqaUBKTNV-0" />
        <mxCell id="WIyWlLk6GJQsqaUBKTNV-1" parent="WIyWlLk6GJQsqaUBKTNV-0" />
        <mxCell id="Kz-h3ll6QVOeyuXCkkza-0" value="&lt;h2&gt;&lt;br&gt;&lt;/h2&gt;" style="text;html=1;align=center;verticalAlign=middle;whiteSpace=wrap;rounded=0;rotation=-90;" vertex="1" parent="WIyWlLk6GJQsqaUBKTNV-1">
          <mxGeometry x="-50" y="70" width="170" height="40" as="geometry" />
        </mxCell>
        <mxCell id="Kz-h3ll6QVOeyuXCkkza-2" value="&lt;h2&gt;Motorista&lt;/h2&gt;" style="html=1;whiteSpace=wrap;rotation=-90;" vertex="1" parent="WIyWlLk6GJQsqaUBKTNV-1">
          <mxGeometry x="-102.42" y="338.04" width="260.47" height="25" as="geometry" />
        </mxCell>
        <mxCell id="Kz-h3ll6QVOeyuXCkkza-3" value="&lt;h2&gt;Aluno&lt;/h2&gt;" style="html=1;whiteSpace=wrap;rotation=-90;" vertex="1" parent="WIyWlLk6GJQsqaUBKTNV-1">
          <mxGeometry x="-82.5" y="107.5" width="220" height="25" as="geometry" />
        </mxCell>
        <mxCell id="Kz-h3ll6QVOeyuXCkkza-7" style="edgeStyle=orthogonalEdgeStyle;rounded=0;orthogonalLoop=1;jettySize=auto;html=1;exitX=1;exitY=0.5;exitDx=0;exitDy=0;exitPerimeter=0;" edge="1" parent="WIyWlLk6GJQsqaUBKTNV-1" source="Kz-h3ll6QVOeyuXCkkza-6">
          <mxGeometry relative="1" as="geometry">
            <mxPoint x="145" y="110.5" as="targetPoint" />
          </mxGeometry>
        </mxCell>
        <mxCell id="Kz-h3ll6QVOeyuXCkkza-6" value="" style="strokeWidth=2;html=1;shape=mxgraph.flowchart.start_2;whiteSpace=wrap;" vertex="1" parent="WIyWlLk6GJQsqaUBKTNV-1">
          <mxGeometry x="80" y="95" width="30" height="30" as="geometry" />
        </mxCell>
        <mxCell id="Kz-h3ll6QVOeyuXCkkza-10" style="edgeStyle=orthogonalEdgeStyle;rounded=0;orthogonalLoop=1;jettySize=auto;html=1;exitX=1;exitY=0.5;exitDx=0;exitDy=0;" edge="1" parent="WIyWlLk6GJQsqaUBKTNV-1" source="Kz-h3ll6QVOeyuXCkkza-9">
          <mxGeometry relative="1" as="geometry">
            <mxPoint x="280" y="110" as="targetPoint" />
          </mxGeometry>
        </mxCell>
        <mxCell id="Kz-h3ll6QVOeyuXCkkza-9" value="Acessar aplicativo" style="rounded=0;whiteSpace=wrap;html=1;" vertex="1" parent="WIyWlLk6GJQsqaUBKTNV-1">
          <mxGeometry x="140" y="80" width="90" height="60" as="geometry" />
        </mxCell>
        <mxCell id="Kz-h3ll6QVOeyuXCkkza-12" value="Acessar aplicativo" style="rounded=0;whiteSpace=wrap;html=1;" vertex="1" parent="WIyWlLk6GJQsqaUBKTNV-1">
          <mxGeometry x="140" y="80" width="90" height="60" as="geometry" />
        </mxCell>
        <mxCell id="Kz-h3ll6QVOeyuXCkkza-19" style="edgeStyle=orthogonalEdgeStyle;rounded=0;orthogonalLoop=1;jettySize=auto;html=1;" edge="1" parent="WIyWlLk6GJQsqaUBKTNV-1" source="Kz-h3ll6QVOeyuXCkkza-13">
          <mxGeometry relative="1" as="geometry">
            <mxPoint x="430" y="112.5" as="targetPoint" />
          </mxGeometry>
        </mxCell>
        <mxCell id="Kz-h3ll6QVOeyuXCkkza-13" value="Login" style="rounded=0;whiteSpace=wrap;html=1;" vertex="1" parent="WIyWlLk6GJQsqaUBKTNV-1">
          <mxGeometry x="280" y="82.5" width="90" height="60" as="geometry" />
        </mxCell>
        <mxCell id="Kz-h3ll6QVOeyuXCkkza-23" style="edgeStyle=orthogonalEdgeStyle;rounded=0;orthogonalLoop=1;jettySize=auto;html=1;" edge="1" parent="WIyWlLk6GJQsqaUBKTNV-1" source="Kz-h3ll6QVOeyuXCkkza-20">
          <mxGeometry relative="1" as="geometry">
            <mxPoint x="570" y="112.5" as="targetPoint" />
          </mxGeometry>
        </mxCell>
        <mxCell id="Kz-h3ll6QVOeyuXCkkza-20" value="Solicitar localização" style="rounded=0;whiteSpace=wrap;html=1;" vertex="1" parent="WIyWlLk6GJQsqaUBKTNV-1">
          <mxGeometry x="430" y="82.5" width="90" height="60" as="geometry" />
        </mxCell>
        <mxCell id="Kz-h3ll6QVOeyuXCkkza-26" style="edgeStyle=orthogonalEdgeStyle;rounded=0;orthogonalLoop=1;jettySize=auto;html=1;" edge="1" parent="WIyWlLk6GJQsqaUBKTNV-1" source="Kz-h3ll6QVOeyuXCkkza-24">
          <mxGeometry relative="1" as="geometry">
            <mxPoint x="710" y="112.5" as="targetPoint" />
          </mxGeometry>
        </mxCell>
        <mxCell id="Kz-h3ll6QVOeyuXCkkza-24" value="Verificar rota" style="rounded=0;whiteSpace=wrap;html=1;" vertex="1" parent="WIyWlLk6GJQsqaUBKTNV-1">
          <mxGeometry x="570" y="82.5" width="90" height="60" as="geometry" />
        </mxCell>
        <mxCell id="Kz-h3ll6QVOeyuXCkkza-27" value="Escolher rota" style="rounded=0;whiteSpace=wrap;html=1;" vertex="1" parent="WIyWlLk6GJQsqaUBKTNV-1">
          <mxGeometry x="710" y="82.5" width="90" height="60" as="geometry" />
        </mxCell>
        <mxCell id="Kz-h3ll6QVOeyuXCkkza-40" value="" style="endArrow=none;html=1;rounded=0;" edge="1" parent="WIyWlLk6GJQsqaUBKTNV-1">
          <mxGeometry width="50" height="50" relative="1" as="geometry">
            <mxPoint x="760" y="240" as="sourcePoint" />
            <mxPoint x="760" y="142.5" as="targetPoint" />
            <Array as="points">
              <mxPoint x="760.5" y="190" />
            </Array>
          </mxGeometry>
        </mxCell>
        <mxCell id="Kz-h3ll6QVOeyuXCkkza-45" value="" style="endArrow=none;html=1;rounded=0;" edge="1" parent="WIyWlLk6GJQsqaUBKTNV-1">
          <mxGeometry width="50" height="50" relative="1" as="geometry">
            <mxPoint x="150" y="240" as="sourcePoint" />
            <mxPoint x="760" y="240" as="targetPoint" />
          </mxGeometry>
        </mxCell>
        <mxCell id="Kz-h3ll6QVOeyuXCkkza-49" value="" style="endArrow=classic;html=1;rounded=0;" edge="1" parent="WIyWlLk6GJQsqaUBKTNV-1">
          <mxGeometry width="50" height="50" relative="1" as="geometry">
            <mxPoint x="150" y="240" as="sourcePoint" />
            <mxPoint x="150" y="290" as="targetPoint" />
          </mxGeometry>
        </mxCell>
        <mxCell id="Kz-h3ll6QVOeyuXCkkza-67" style="edgeStyle=orthogonalEdgeStyle;rounded=0;orthogonalLoop=1;jettySize=auto;html=1;entryX=0.5;entryY=0;entryDx=0;entryDy=0;" edge="1" parent="WIyWlLk6GJQsqaUBKTNV-1" source="Kz-h3ll6QVOeyuXCkkza-50" target="Kz-h3ll6QVOeyuXCkkza-55">
          <mxGeometry relative="1" as="geometry" />
        </mxCell>
        <mxCell id="Kz-h3ll6QVOeyuXCkkza-50" value="Validar QR Code" style="rounded=0;whiteSpace=wrap;html=1;" vertex="1" parent="WIyWlLk6GJQsqaUBKTNV-1">
          <mxGeometry x="80" y="290" width="100" height="60" as="geometry" />
        </mxCell>
        <mxCell id="Kz-h3ll6QVOeyuXCkkza-53" value="&lt;h2&gt;Administração/BD&lt;/h2&gt;" style="html=1;whiteSpace=wrap;rotation=-90;" vertex="1" parent="WIyWlLk6GJQsqaUBKTNV-1">
          <mxGeometry x="-112.65" y="607.04" width="280.95" height="25" as="geometry" />
        </mxCell>
        <mxCell id="Kz-h3ll6QVOeyuXCkkza-56" style="edgeStyle=orthogonalEdgeStyle;rounded=0;orthogonalLoop=1;jettySize=auto;html=1;exitX=1;exitY=0.5;exitDx=0;exitDy=0;" edge="1" parent="WIyWlLk6GJQsqaUBKTNV-1" source="Kz-h3ll6QVOeyuXCkkza-55">
          <mxGeometry relative="1" as="geometry">
            <mxPoint x="220" y="580" as="targetPoint" />
          </mxGeometry>
        </mxCell>
        <mxCell id="Kz-h3ll6QVOeyuXCkkza-55" value="Validar dados" style="rounded=0;whiteSpace=wrap;html=1;" vertex="1" parent="WIyWlLk6GJQsqaUBKTNV-1">
          <mxGeometry x="80" y="550" width="100" height="60" as="geometry" />
        </mxCell>
        <mxCell id="Kz-h3ll6QVOeyuXCkkza-69" style="edgeStyle=orthogonalEdgeStyle;rounded=0;orthogonalLoop=1;jettySize=auto;html=1;entryX=0.5;entryY=1;entryDx=0;entryDy=0;" edge="1" parent="WIyWlLk6GJQsqaUBKTNV-1" source="Kz-h3ll6QVOeyuXCkkza-57" target="Kz-h3ll6QVOeyuXCkkza-60">
          <mxGeometry relative="1" as="geometry" />
        </mxCell>
        <mxCell id="Kz-h3ll6QVOeyuXCkkza-57" value="Atualizar banco de dados" style="rounded=0;whiteSpace=wrap;html=1;" vertex="1" parent="WIyWlLk6GJQsqaUBKTNV-1">
          <mxGeometry x="217.5" y="550" width="90" height="60" as="geometry" />
        </mxCell>
        <mxCell id="Kz-h3ll6QVOeyuXCkkza-61" style="edgeStyle=orthogonalEdgeStyle;rounded=0;orthogonalLoop=1;jettySize=auto;html=1;" edge="1" parent="WIyWlLk6GJQsqaUBKTNV-1" source="Kz-h3ll6QVOeyuXCkkza-60">
          <mxGeometry relative="1" as="geometry">
            <mxPoint x="360" y="320" as="targetPoint" />
          </mxGeometry>
        </mxCell>
        <mxCell id="Kz-h3ll6QVOeyuXCkkza-60" value="Permitir embarque" style="rounded=0;whiteSpace=wrap;html=1;" vertex="1" parent="WIyWlLk6GJQsqaUBKTNV-1">
          <mxGeometry x="210" y="290" width="105" height="60" as="geometry" />
        </mxCell>
        <mxCell id="Kz-h3ll6QVOeyuXCkkza-64" style="edgeStyle=orthogonalEdgeStyle;rounded=0;orthogonalLoop=1;jettySize=auto;html=1;" edge="1" parent="WIyWlLk6GJQsqaUBKTNV-1" source="Kz-h3ll6QVOeyuXCkkza-62">
          <mxGeometry relative="1" as="geometry">
            <mxPoint x="500" y="320" as="targetPoint" />
          </mxGeometry>
        </mxCell>
        <mxCell id="Kz-h3ll6QVOeyuXCkkza-62" value="Verificar capacidade" style="rounded=0;whiteSpace=wrap;html=1;" vertex="1" parent="WIyWlLk6GJQsqaUBKTNV-1">
          <mxGeometry x="360" y="290" width="100" height="60" as="geometry" />
        </mxCell>
        <mxCell id="Kz-h3ll6QVOeyuXCkkza-71" style="edgeStyle=orthogonalEdgeStyle;rounded=0;orthogonalLoop=1;jettySize=auto;html=1;" edge="1" parent="WIyWlLk6GJQsqaUBKTNV-1" source="Kz-h3ll6QVOeyuXCkkza-65">
          <mxGeometry relative="1" as="geometry">
            <mxPoint x="640" y="320" as="targetPoint" />
          </mxGeometry>
        </mxCell>
        <mxCell id="Kz-h3ll6QVOeyuXCkkza-65" value="Iniciar rota" style="rounded=0;whiteSpace=wrap;html=1;" vertex="1" parent="WIyWlLk6GJQsqaUBKTNV-1">
          <mxGeometry x="500" y="290" width="100" height="60" as="geometry" />
        </mxCell>
        <mxCell id="Kz-h3ll6QVOeyuXCkkza-72" value="Disponibilizar localização" style="rounded=0;whiteSpace=wrap;html=1;" vertex="1" parent="WIyWlLk6GJQsqaUBKTNV-1">
          <mxGeometry x="640" y="290" width="100" height="60" as="geometry" />
        </mxCell>
        <mxCell id="Kz-h3ll6QVOeyuXCkkza-74" value="Atualizar&amp;nbsp; API de mapas ( 3 seg )&amp;nbsp;" style="rounded=0;whiteSpace=wrap;html=1;" vertex="1" parent="WIyWlLk6GJQsqaUBKTNV-1">
          <mxGeometry x="370" y="550" width="100" height="60" as="geometry" />
        </mxCell>
        <mxCell id="Kz-h3ll6QVOeyuXCkkza-80" value="" style="endArrow=classic;html=1;rounded=0;" edge="1" parent="WIyWlLk6GJQsqaUBKTNV-1">
          <mxGeometry width="50" height="50" relative="1" as="geometry">
            <mxPoint x="420" y="390" as="sourcePoint" />
            <mxPoint x="420" y="550" as="targetPoint" />
          </mxGeometry>
        </mxCell>
        <mxCell id="Kz-h3ll6QVOeyuXCkkza-83" value="" style="endArrow=none;html=1;rounded=0;" edge="1" parent="WIyWlLk6GJQsqaUBKTNV-1">
          <mxGeometry width="50" height="50" relative="1" as="geometry">
            <mxPoint x="689" y="390" as="sourcePoint" />
            <mxPoint x="689.41" y="350" as="targetPoint" />
          </mxGeometry>
        </mxCell>
        <mxCell id="Kz-h3ll6QVOeyuXCkkza-84" value="" style="endArrow=none;html=1;rounded=0;" edge="1" parent="WIyWlLk6GJQsqaUBKTNV-1">
          <mxGeometry width="50" height="50" relative="1" as="geometry">
            <mxPoint x="420" y="390" as="sourcePoint" />
            <mxPoint x="690" y="390" as="targetPoint" />
          </mxGeometry>
        </mxCell>
        <mxCell id="Kz-h3ll6QVOeyuXCkkza-86" value="" style="endArrow=none;html=1;rounded=0;" edge="1" parent="WIyWlLk6GJQsqaUBKTNV-1">
          <mxGeometry width="50" height="50" relative="1" as="geometry">
            <mxPoint x="470" y="579.41" as="sourcePoint" />
            <mxPoint x="550" y="580" as="targetPoint" />
          </mxGeometry>
        </mxCell>
        <mxCell id="Kz-h3ll6QVOeyuXCkkza-90" style="edgeStyle=orthogonalEdgeStyle;rounded=0;orthogonalLoop=1;jettySize=auto;html=1;" edge="1" parent="WIyWlLk6GJQsqaUBKTNV-1" source="Kz-h3ll6QVOeyuXCkkza-87">
          <mxGeometry relative="1" as="geometry">
            <mxPoint x="650" y="430" as="targetPoint" />
          </mxGeometry>
        </mxCell>
        <mxCell id="Kz-h3ll6QVOeyuXCkkza-87" value="Realizar paradas da rota" style="rounded=0;whiteSpace=wrap;html=1;" vertex="1" parent="WIyWlLk6GJQsqaUBKTNV-1">
          <mxGeometry x="500" y="400" width="100" height="60" as="geometry" />
        </mxCell>
        <mxCell id="Kz-h3ll6QVOeyuXCkkza-89" value="" style="endArrow=classic;html=1;rounded=0;" edge="1" parent="WIyWlLk6GJQsqaUBKTNV-1">
          <mxGeometry width="50" height="50" relative="1" as="geometry">
            <mxPoint x="550" y="580" as="sourcePoint" />
            <mxPoint x="550.41" y="460" as="targetPoint" />
          </mxGeometry>
        </mxCell>
        <mxCell id="Kz-h3ll6QVOeyuXCkkza-91" value="Finalizar rota" style="rounded=0;whiteSpace=wrap;html=1;" vertex="1" parent="WIyWlLk6GJQsqaUBKTNV-1">
          <mxGeometry x="650" y="400" width="100" height="60" as="geometry" />
        </mxCell>
        <mxCell id="Kz-h3ll6QVOeyuXCkkza-92" value="" style="endArrow=classic;html=1;rounded=0;" edge="1" parent="WIyWlLk6GJQsqaUBKTNV-1">
          <mxGeometry width="50" height="50" relative="1" as="geometry">
            <mxPoint x="750" y="429.40999999999997" as="sourcePoint" />
            <mxPoint x="790" y="429" as="targetPoint" />
          </mxGeometry>
        </mxCell>
        <mxCell id="Kz-h3ll6QVOeyuXCkkza-93" value="" style="ellipse;html=1;shape=endState;fillColor=#000000;strokeColor=#ff0000;" vertex="1" parent="WIyWlLk6GJQsqaUBKTNV-1">
          <mxGeometry x="790" y="415" width="30" height="30" as="geometry" />
        </mxCell>
        <mxCell id="Kz-h3ll6QVOeyuXCkkza-94" value="" style="endArrow=none;html=1;rounded=0;" edge="1" parent="WIyWlLk6GJQsqaUBKTNV-1">
          <mxGeometry width="50" height="50" relative="1" as="geometry">
            <mxPoint x="30" y="230" as="sourcePoint" />
            <mxPoint x="880" y="230" as="targetPoint" />
          </mxGeometry>
        </mxCell>
        <mxCell id="Kz-h3ll6QVOeyuXCkkza-95" value="" style="endArrow=none;html=1;rounded=0;" edge="1" parent="WIyWlLk6GJQsqaUBKTNV-1">
          <mxGeometry width="50" height="50" relative="1" as="geometry">
            <mxPoint x="35" y="10" as="sourcePoint" />
            <mxPoint x="880" y="10" as="targetPoint" />
          </mxGeometry>
        </mxCell>
        <mxCell id="Kz-h3ll6QVOeyuXCkkza-96" value="" style="endArrow=none;html=1;rounded=0;exitX=1;exitY=1;exitDx=0;exitDy=0;" edge="1" parent="WIyWlLk6GJQsqaUBKTNV-1" source="Kz-h3ll6QVOeyuXCkkza-53">
          <mxGeometry width="50" height="50" relative="1" as="geometry">
            <mxPoint x="50" y="480" as="sourcePoint" />
            <mxPoint x="880" y="480" as="targetPoint" />
          </mxGeometry>
        </mxCell>
        <mxCell id="Kz-h3ll6QVOeyuXCkkza-98" value="" style="endArrow=none;html=1;rounded=0;" edge="1" parent="WIyWlLk6GJQsqaUBKTNV-1">
          <mxGeometry width="50" height="50" relative="1" as="geometry">
            <mxPoint x="30" y="760" as="sourcePoint" />
            <mxPoint x="880" y="760" as="targetPoint" />
          </mxGeometry>
        </mxCell>
        <mxCell id="Kz-h3ll6QVOeyuXCkkza-99" value="" style="endArrow=none;html=1;rounded=0;" edge="1" parent="WIyWlLk6GJQsqaUBKTNV-1">
          <mxGeometry width="50" height="50" relative="1" as="geometry">
            <mxPoint x="880" y="760" as="sourcePoint" />
            <mxPoint x="880" y="10" as="targetPoint" />
          </mxGeometry>
        </mxCell>
      </root>
    </mxGraphModel>
  </diagram>
</mxfile>
